<?xml version="1.0" encoding="UTF-8"?>
<svg width="1200pt" height="1200pt" version="1.1" viewBox="0 0 1200 1200" xmlns="http://www.w3.org/2000/svg">
 <path d="m900.79 484.75c-2.4375-7.332-5.0156-14.578-7.7148-21.77-0.14453-0.46875-0.21484-0.91016-0.37109-1.3789-2.207-5.7227-1.5-13.43-0.68359-22.355 2.1133-23.137 4.9688-54.84-36.098-88.453-25.848-21.191-57.301-26.387-90.59-31.895-18.938-3.1445-38.508-6.3477-58.43-12.707-11.508-3.6602-22.848-2.7617-32.809 2.6523-3.1211 1.668-5.8789 3.8164-8.4609 6.1445-69.059-16.992-143.33-11.629-206.12 15.758-83.062 36.238-145.89 113.21-168.11 205.95-12.422 52.355-10.332 109.29 6.0117 164.63 10.547 35.762 36.348 86.461 80.074 130.18 49.402 49.402 121.66 89.902 220.57 89.902 84.07-0.023438 163.93-31.668 224.87-89.16 89.664-84.652 120.23-221.04 77.867-347.49zm-252.37-87.207c6.3008 12 16.031 22.332 25.645 32.484 3.8164 4.0078 7.8242 8.2305 11.832 12.793 7.9688 8.9766 10.621 14.676 13.969 21.84 3.7578 8.0625 8.0156 17.16 18.66 30.168 1.2617 1.5234 2.5547 2.9766 3.9102 4.3086 6.3242 6.3242 13.691 10.598 21.277 13.621 7.4531 13.285 13.105 26.809 17.039 41.652 8.0898 30.348 7.3789 64.379-1.9688 95.832-7.8008 26.113-21.098 49.355-40.199 70.523-3.9609 4.0078-21.215 20.184-31.332 26.578-27.348 17.27-55.43 27.098-83.438 29.23-53.461 4.1055-100.91-12.961-137.26-49.309l-0.10938-0.12109c-14.125-14.113-34.488-39.637-45.492-65.23-13.379-31.129-18.012-67.5-13.043-102.35 5.7461-37.922 21.625-71.438 48.574-102.39 6.2539-7.1758 28.969-27.145 45.84-36.887 21.156-12.215 46.344-20.531 72.898-24.121 23.035-3.1211 48.281-2.3516 73.195 1.3789zm104.93 433.45 2.4844-15.492c1.5977-9.8164-5.1133-19.055-14.93-20.629-9.8164-1.5469-19.031 5.1367-20.629 14.953l-4.5 28.129c-0.91016 5.7852 1.0547 11.555 5.0625 15.562 1.1289 1.1055 2.4375 2.0625 3.8633 2.8555-20.461 9.8398-42.047 17.27-64.332 22.105l-5.5312-5.5312 7.668-14.039c4.7539-8.7461 1.5234-19.715-7.1992-24.395-8.7227-4.7773-19.668-1.5703-24.422 7.1758l-14.082 25.867c-2.9531 5.3633-2.832 11.723-0.097656 16.945-6.1914 0.37109-12.383 0.86328-18.648 0.88672-17.508 0-33.984-1.5234-49.645-4.1289l-1.6094-4.6914 8.7344-5.2578c8.5078-5.1133 11.281-16.176 6.1914-24.707-5.1484-8.5547-16.223-11.27-24.73-6.168l-21.254 12.77c-6.2539 3.7695-9.2656 10.824-8.3281 17.855-26.09-8.7461-49.117-20.902-69.18-35.137l0.17969-0.86328 12.648-2.6758c9.7578-2.0898 15.961-11.629 13.883-21.348-2.0391-9.7578-11.605-15.938-21.336-13.871l-24.109 5.0898c-5.0039 1.0781-9.2031 4.2461-11.734 8.5547-19.453-18.492-35.148-38.605-47.316-58.152l7.5352-0.53906c9.9102-0.68359 17.398-9.2773 16.738-19.223-0.69531-9.8867-9.2891-17.363-19.234-16.691l-23.594 1.6445c-4.2461-9.5898-7.5703-18.613-9.9609-26.762-3.4219-11.578-6.0859-23.363-8.0742-35.207l3.6836 0.91016c9.6836 2.2695 19.379-3.707 21.684-13.355 2.293-9.6836-3.707-19.332-13.332-21.707l-16.055-3.793c-0.74219-17.258 0.17969-34.309 2.5312-50.785l2.4375 1.6445c8.2305 5.5781 19.414 3.4219 24.996-4.8242 5.5664-8.2305 3.4336-19.402-4.8125-24.984l-14.293-9.6836c22.547-74.699 75.18-135.91 143.22-165.59 52.309-22.824 113.72-28.129 172-16.152-0.70703 2.0625-1.3086 4.0781-1.8477 6-0.68359 2.4375-1.1758 4.8008-1.5469 7.1055-24.684-2.9297-49.344-3.3008-72.059-0.21484-31.598 4.2617-60.551 13.895-86.062 28.598-21.875 12.66-47.074 35.316-55.031 44.461-31.129 35.762-50.305 76.379-57.023 120.82-5.9141 41.438-0.37109 84.684 15.59 121.75 13.008 30.254 35.941 59.316 53.102 76.477 0.035156 0.023438 0.085938 0.097656 0.13281 0.12109 43.379 43.379 102.14 64.598 165.47 59.746 33.91-2.5781 67.5-14.23 99.863-34.668 15.254-9.6367 36.984-30.84 38.41-32.41 23.184-25.715 39.023-53.461 48.422-84.863 11.23-37.715 12.047-78.707 2.2578-115.36-2.5547-9.5625-5.7461-18.73-9.4453-27.637 2.8086-0.44531 5.3633-0.96094 7.4297-1.5977 9.5156-2.9023 14.855-12.961 11.93-22.453-2.9023-9.4922-12.961-14.855-22.477-11.977-4.8945 1.5234-26.699 3.0703-36.59-9.4688-7.8008-9.5156-10.668-15.562-13.895-22.57-3.8398-8.2578-8.207-17.578-19.621-30.469-4.2852-4.8945-8.5781-9.4219-12.684-13.738-19.355-20.438-25.285-28.223-21.445-42.023 3.8398-13.895 9.1445-20.93 12.469-22.738 0.66016-0.37109 1.8008-0.98438 4.7539-0.023438 22.43 7.1523 44.258 10.754 63.492 13.945 29.676 4.8945 55.246 9.1211 73.668 24.215 26.23 21.59 24.863 37.355 23.039 57.371-1.0547 11.676-2.2578 24.938 2.8789 38.41 0 0 2.2695 5.8086 7.6211 21.77 4.9219 14.652 8.6992 29.484 11.438 44.316l-8.4102 6.9844-11.977-11.977c-7.0312-7.0078-18.422-7.0078-25.43 0-7.0312 7.0312-7.0547 18.445 0 25.477l23.531 23.531c6.5625 6.5898 17.062 7.0547 24.215 1.1523l3.1445-2.6055c1.1055 21.492 0 42.793-3.2383 63.539l-10.176 4.4531-8.4844-14.387c-4.9922-8.5547-16.055-11.41-24.637-6.3711-8.5547 5.0391-11.41 16.055-6.3711 24.637l16.57 28.152c0.79297 1.3555 1.7383 2.5547 2.7852 3.6133 5.1367 5.1367 13.055 6.793 19.945 3.7578h0.046875c-6.5898 20.832-15.492 40.738-26.578 59.27l-10.547-0.023437-3.7578-17.723c-2.0391-9.7305-11.605-15.938-21.324-13.871-9.7188 2.0625-15.961 11.605-13.895 21.324l6.7578 31.969c0.75781 3.5156 2.4844 6.6133 4.8711 9 3.168 3.1914 7.5234 5.0391 12.238 5.1836-6.0469 7.1055-12.324 14.016-19.176 20.461-11.531 10.871-23.977 20.484-36.91 29.258zm31.742-451.82c-4.7539 0-9.3477 1.8711-12.758 5.2695-3.3008 3.3008-5.2578 7.9688-5.2578 12.707 0 4.7773 1.9453 9.4453 5.2578 12.758s7.9688 5.2695 12.758 5.2578c4.7383 0 9.3945-1.9453 12.73-5.2578 3.3711-3.3945 5.3398-8.0625 5.2578-12.758-0.015625-9.4922-8.5-17.977-17.988-17.977z"/>
</svg>
